#!OML:ASF H:\LiuWeirdWalks\Patient Classification 1\Patient 1\Session 1\male.ASF
:FULLY-SPECIFIED
:DEGREES
1163
root 0.852099 18.1617 30.6685 2.44902 4.14124 8.77274
lowerback 11.1925 -1.18165 -0.209463
upperback 0.607654 -1.34314 4.20724
thorax -5.54097 -0.601031 4.76332
lowerneck -18.4008 2.65702 7.42187
upperneck 14.2847 4.93715 -17.4643
head 8.14878 1.09623 -6.5679
rclavicle -2.22639e-014 0
rhumerus -17.992 -24.266 -11.8955
rradius 35.2211
rwrist -11.9346
rhand -20.7324 -2.65538
rfingers 7.12502
rthumb 5.63273 -32.5605
lclavicle -2.22639e-014 0
lhumerus -38.5147 32.6935 24.36
lradius 44.5097
lwrist 0.070909
lhand -12.2347 -1.22159
lfingers 7.12502
lthumb 13.8308 28.2986
rfemur -16.4437 -7.70336 7.50868
rtibia 35.5641
rfoot -10.4725 -15.7142
rtoes -5.65403
lfemur -8.5389 3.43686 -19.6771
ltibia 26.2401
lfoot -6.34879 17.0997
ltoes -16.5377
1164
root 0.867565 18.1569 30.6959 2.39804 4.08607 8.58234
lowerback 11.0342 -1.16133 -0.287349
upperback 0.601098 -1.33177 4.16954
thorax -5.45918 -0.595461 4.75995
lowerneck -18.3907 2.65983 7.38845
upperneck 14.3014 4.92202 -17.3062
head 8.14333 1.10155 -6.50736
rclavicle 1.78906e-014 -3.49861e-014
rhumerus -18.004 -24.2644 -11.8362
rradius 35.1286
rwrist -11.8259
rhand -20.6415 -2.61219
rfingers 7.12502
rthumb 5.7205 -32.515
lclavicle 1.78906e-014 -3.49861e-014
lhumerus -38.513 32.6698 24.3658
lradius 44.5623
lwrist -0.156386
lhand -12.0808 -1.37455
lfingers 7.12502
lthumb 13.9791 28.1355
rfemur -16.306 -7.58085 7.65995
rtibia 35.5452
rfoot -10.5633 -15.7694
rtoes -5.67738
lfemur -8.30487 3.19353 -19.563
ltibia 25.215
lfoot -6.1814 17.4084
ltoes -16.4207
1165
root 0.884203 18.1517 30.7223 2.34187 4.01709 8.38159
lowerback 10.8797 -1.1285 -0.348601
upperback 0.581693 -1.30096 4.13043
thorax -5.39507 -0.580316 4.74334
lowerneck -18.3426 2.64354 7.33022
upperneck 14.3315 4.88527 -17.1232
head 8.13099 1.09875 -6.43645
rclavicle 3.69739e-014 -1.27222e-014
rhumerus -18.0655 -24.2115 -11.7511
rradius 35.0855
rwrist -11.752
rhand -20.5732 -2.59732
rfingers 7.12502
rthumb 5.78647 -32.4983
lclavicle 3.69739e-014 -1.27222e-014
lhumerus -38.483 32.5627 24.4205
lradius 44.6581
lwrist -0.260792
lhand -11.9866 -1.41666
lfingers 7.12502
lthumb 14.0699 28.0871
rfemur -16.1728 -7.43015 7.8198
rtibia 35.5287
rfoot -10.6494 -15.8381
rtoes -5.6872
lfemur -8.08873 2.93898 -19.4423
ltibia 24.3416
lfoot -5.95834 17.5869
ltoes -16.328
1166
root 0.901575 18.1465 30.748 2.2659 3.94188 8.11887
lowerback 10.7316 -1.1014 -0.374726
upperback 0.56376 -1.27168 4.11641
thorax -5.33314 -0.566427 4.73402
lowerneck -18.2764 2.62848 7.26731
upperneck 14.3898 4.85407 -16.9304
head 8.12505 1.0991 -6.36149
rclavicle -1.98785e-015 -2.22639e-014
rhumerus -18.0856 -24.1454 -11.687
rradius 35.0401
rwrist -11.7145
rhand -20.5418 -2.59911
rfingers 7.12502
rthumb 5.81676 -32.4993
lclavicle -1.98785e-015 -2.22639e-014
lhumerus -38.4672 32.4448 24.467
lradius 44.7728
lwrist -0.359514
lhand -11.8845 -1.27768
lfingers 7.12502
lthumb 14.1683 28.2192
rfemur -16.0263 -7.23812 8.04734
rtibia 35.5148
rfoot -10.7402 -15.9369
rtoes -5.68575
lfemur -7.88015 2.66997 -19.2535
ltibia 23.6228
lfoot -5.6932 17.603
ltoes -16.1725
1167
root 0.923772 18.1398 30.7712 2.24216 3.88579 8.04136
lowerback 10.5543 -1.07985 -0.544959
upperback 0.525948 -1.27011 4.04663
thorax -5.27144 -0.563251 4.75133
lowerneck -18.1949 2.62565 7.24318
upperneck 14.4386 4.83384 -16.7645
head 8.1166 1.10541 -6.30125
rclavicle 2.18663e-014 1.27222e-014
rhumerus -18.0802 -24.0976 -11.6338
rradius 34.9938
rwrist -11.6611
rhand -20.5277 -2.58781
rfingers 7.12502
rthumb 5.83031 -32.4876
lclavicle 2.18663e-014 1.27222e-014
lhumerus -38.4279 32.2973 24.5443
lradius 44.9163
lwrist -0.292195
lhand -11.8608 -0.840999
lfingers 7.12502
lthumb 14.1911 28.6543
rfemur -15.9353 -7.15052 8.04769
rtibia 35.5226
rfoot -10.8243 -15.9588
rtoes -5.68412
lfemur -7.73454 2.35137 -19.2931
ltibia 23.0433
lfoot -5.35195 17.5009
ltoes -15.8216
1168
root 0.94655 18.1323 30.7934 2.20894 3.83722 7.94355
lowerback 10.3786 -1.06702 -0.726681
upperback 0.491757 -1.27991 3.99372
thorax -5.2052 -0.565361 4.79486
lowerneck -18.0893 2.63594 7.25857
upperneck 14.4514 4.82405 -16.6331
head 8.09557 1.11795 -6.25755
rclavicle 2.74323e-014 -3.18055e-014
rhumerus -18.0244 -24.0409 -11.6062
rradius 34.9424
rwrist -11.6568
rhand -20.5615 -2.58032
rfingers 7.12502
rthumb 5.79776 -32.481
lclavicle 2.74323e-014 -3.18055e-014
lhumerus -38.3996 32.1717 24.6045
lradius 45.0336
lwrist -0.228488
lhand -11.8591 -0.441555
lfingers 7.12502
lthumb 14.1927 29.0536
rfemur -15.8404 -7.03886 8.0703
rtibia 35.5377
rfoot -10.9102 -16.0131
rtoes -5.68474
lfemur -7.599 2.02613 -19.3142
ltibia 22.606
lfoot -4.93562 17.3368
ltoes -15.252
